<svg width="120" height="120" viewBox="0 0 120 120" fill="none" xmlns="http://www.w3.org/2000/svg">
<g clip-path="url(#clip0_1040_185)">
<mask id="mask0_1040_185" style="mask-type:alpha" maskUnits="userSpaceOnUse" x="79" y="20" width="41" height="80">
<rect x="79.049" y="99.6716" width="79.3425" height="40.951" transform="rotate(-90 79.049 99.6716)" fill="#EE9CD8"/>
</mask>
<g mask="url(#mask0_1040_185)">
<rect x="40.8126" y="99.8831" width="78.8489" height="78.8489" rx="39.4245" transform="rotate(-90 40.8126 99.8831)" fill="#EE9CD8"/>
</g>
<path d="M39.5 20C61.3152 20 79 37.6848 79 59.5V59.5C79 81.3152 61.3152 99 39.5 99V99C17.6848 99 -1.24966e-06 81.3152 -2.96088e-07 59.5V59.5C6.57486e-07 37.6847 17.6848 20 39.5 20V20Z" fill="#4978D6"/>
<path d="M39.5 20C61.3152 20 79 37.6848 79 59.5C79 81.3152 61.3152 99 39.5 99C17.6848 99 -1.24966e-06 81.3152 -2.96088e-07 59.5C6.57486e-07 37.6847 17.6848 20 39.5 20Z" fill="#4978D6"/>
</g>
<defs>
<clipPath id="clip0_1040_185">
<rect width="120" height="120" fill="white"/>
</clipPath>
</defs>
</svg>
